<svg width="51" height="51" viewBox="0 0 51 51" fill="none" xmlns="http://www.w3.org/2000/svg">
<path d="M14.875 46.75H36.125C36.6364 46.7501 37.1306 46.5657 37.517 46.2308C37.9034 45.8959 38.1561 45.4329 38.2288 44.9268L42.2174 17H44.625V12.75H41.6883L38.0247 5.42513C37.8488 5.07189 37.5778 4.77477 37.2421 4.56716C36.9065 4.35956 36.5196 4.24972 36.125 4.25H14.875C14.0696 4.25 13.3344 4.70475 12.9731 5.42513L9.31175 12.75H6.375V17H8.78262L12.7713 44.9268C12.8439 45.4329 13.0966 45.8959 13.483 46.2308C13.8694 46.5657 14.3636 46.7501 14.875 46.75ZM37.0132 23.375H13.9867L13.0751 17H37.9228L37.0132 23.375ZM16.7174 42.5L15.8058 36.125H35.1921L34.2805 42.5H16.7174ZM16.1882 8.5H34.8118L36.9368 12.75H14.0633L16.1882 8.5Z" fill="#FBFBFB"/>
</svg>
